<svg width="100%" height="100%" viewBox="0 0 57 86" fill="none" xmlns="http://www.w3.org/2000/svg">
<path d="M14.262 85.6342C22.1223 85.6342 28.508 79.2528 28.508 71.3822V57.1301H14.262C6.40165 57.1301 0.0159912 63.5115 0.0159912 71.3822C0.0159912 79.2528 6.40165 85.6342 14.262 85.6342Z" fill="#0ACF83"/>
<path d="M0.0159912 42.8779C0.0159912 35.0142 6.40165 28.6259 14.262 28.6259H28.508V57.1299H14.262C6.40165 57.1299 0.0159912 50.7485 0.0159912 42.8779Z" fill="#A259FF"/>
<path d="M0.0159912 14.3736C0.0159912 6.50995 6.40165 0.121582 14.262 0.121582H28.508V28.6257H14.262C6.40165 28.6257 0.0159912 22.2443 0.0159912 14.3736Z" fill="#F24E1E"/>
<path d="M28.5081 0.121704H42.7541C50.6144 0.121704 57.0001 6.51007 57.0001 14.3737C57.0001 22.2444 50.6214 28.6258 42.7541 28.6258H28.5081V0.121704Z" fill="#FF7262"/>
<path d="M57.0001 42.8779C57.0001 50.7485 50.6214 57.1299 42.7541 57.1299C34.8868 57.1299 28.5081 50.7485 28.5081 42.8779C28.5081 35.0142 34.8868 28.6259 42.7541 28.6259C50.6214 28.6259 57.0001 35.0142 57.0001 42.8779Z" fill="#1ABCFE"/>
</svg>
