<svg width="50" height="50" viewBox="0 0 64 64" fill="none" xmlns="http://www.w3.org/2000/svg">
<path d="M9.8 50.6666C8.11111 50.6666 6.78888 50.1 5.83333 48.9666C4.87777 47.8333 4.53333 46.2666 4.8 44.2666L8 21.9333C8.35555 19.5778 9.45555 17.5555 11.3 15.8666C13.1444 14.1778 15.2444 13.3333 17.6 13.3333H46.4667C48.8222 13.3333 50.9222 14.1778 52.7667 15.8666C54.6111 17.5555 55.7111 19.5778 56.0667 21.9333L59.2 44.2666C59.4667 46.2666 59.1222 47.8333 58.1667 48.9666C57.2111 50.1 55.8889 50.6666 54.2 50.6666C53.1778 50.6666 52.3111 50.5 51.6 50.1666C50.8889 49.8333 50.2889 49.4222 49.8 48.9333L42.8667 42H21.1333L14.2 48.9333C13.7111 49.4222 13.1111 49.8333 12.4 50.1666C11.6889 50.5 10.8222 50.6666 9.8 50.6666ZM11 46.4L19.4 38H44.6L53 46.4C53.2222 46.6222 53.6222 46.8222 54.2 47C54.6 47 54.9 46.8 55.1 46.4C55.3 46 55.3556 45.6 55.2667 45.2L52.0667 22.6C51.8444 21.0444 51.1889 19.7778 50.1 18.8C49.0111 17.8222 47.8 17.3333 46.4667 17.3333H17.5333C16.2 17.3333 14.9889 17.8222 13.9 18.8C12.8111 19.7778 12.1556 21.0444 11.9333 22.6L8.73333 45.2C8.64444 45.6 8.7 46 8.9 46.4C9.1 46.8 9.4 47 9.8 47C10.1111 47 10.5111 46.8 11 46.4ZM46.6667 34.6666C47.3778 34.6666 48 34.4 48.5333 33.8666C49.0667 33.3333 49.3333 32.7111 49.3333 32C49.3333 31.2889 49.0667 30.6666 48.5333 30.1333C48 29.6 47.3778 29.3333 46.6667 29.3333C45.9556 29.3333 45.3333 29.6 44.8 30.1333C44.2667 30.6666 44 31.2889 44 32C44 32.7111 44.2667 33.3333 44.8 33.8666C45.3333 34.4 45.9556 34.6666 46.6667 34.6666ZM41 26C41.7111 26 42.3333 25.7333 42.8667 25.2C43.4 24.6666 43.6667 24.0444 43.6667 23.3333C43.6667 22.6222 43.4 22 42.8667 21.4666C42.3333 20.9333 41.7111 20.6666 41 20.6666C40.2889 20.6666 39.6667 20.9333 39.1333 21.4666C38.6 22 38.3333 22.6222 38.3333 23.3333C38.3333 24.0444 38.6 24.6666 39.1333 25.2C39.6667 25.7333 40.2889 26 41 26ZM20 34.3333H23.3333V29.3333H28.3333V26H23.3333V21H20V26H15V29.3333H20V34.3333Z" fill="#5D5FEF"/>
</svg>
