<svg width="50" height="50" viewBox="0 0 50 50" fill="none" xmlns="http://www.w3.org/2000/svg">
<path d="M13.5417 47.9167C12.7083 47.9167 11.9792 47.6042 11.3542 46.9792C10.7292 46.3542 10.4167 45.625 10.4167 44.7917V5.20834C10.4167 4.37501 10.7292 3.64584 11.3542 3.02084C11.9792 2.39584 12.7083 2.08334 13.5417 2.08334H36.4583C37.2917 2.08334 38.0208 2.39584 38.6458 3.02084C39.2708 3.64584 39.5833 4.37501 39.5833 5.20834V44.7917C39.5833 45.625 39.2708 46.3542 38.6458 46.9792C38.0208 47.6042 37.2917 47.9167 36.4583 47.9167H13.5417ZM13.5417 43.2292V44.7917H36.4583V43.2292H13.5417ZM13.5417 40.1042H36.4583V9.89584H13.5417V40.1042ZM13.5417 6.77084H36.4583V5.20834H13.5417V6.77084ZM13.5417 6.77084V5.20834V6.77084ZM13.5417 43.2292V44.7917V43.2292Z" fill="#5D5FEF"/>
</svg>
