<svg width="50" height="50" viewBox="0 0 50 50" fill="none" xmlns="http://www.w3.org/2000/svg">
<path d="M45.4966 10.3474C45.5276 10.2023 45.5457 10.0509 45.5457 9.89399C45.5457 8.88365 44.8643 8.06478 44.0237 8.06478H40.7263C39.8856 8.06478 39.2043 8.88365 39.2043 9.89399C39.2043 9.97468 39.2102 10.0535 39.2185 10.1316H34.6338V7.60544C34.6338 3.41188 31.795 0 28.3056 0H21.6941C18.2047 0 15.3659 3.41188 15.3659 7.60544V10.1316H10.7813C10.7898 10.0535 10.7956 9.97468 10.7956 9.89399C10.7956 8.88365 10.1142 8.06478 9.27358 8.06478H5.9763C5.13566 8.06478 4.45432 8.88365 4.45432 9.89399C4.45432 10.0507 4.47241 10.2021 4.50336 10.3474C1.91921 11.1279 0 13.943 0 17.2876V42.8441C0 46.7899 2.6709 50 5.95398 50H44.046C47.3291 50 50 46.7899 50 42.8441V17.2876C50 13.943 48.0808 11.1279 45.4966 10.3474ZM18.41 7.60544C18.41 5.42909 19.8833 3.65842 21.6943 3.65842H28.3057C30.1167 3.65842 31.59 5.42909 31.59 7.60544V10.1316H18.41V7.60544ZM46.956 42.8441C46.956 44.7725 45.6505 46.3416 44.046 46.3416H5.95398C4.34947 46.3416 3.04395 44.7725 3.04395 42.8441V17.2876C3.04395 15.3591 4.34947 13.7902 5.95398 13.7902H44.046C45.6505 13.7902 46.956 15.3593 46.956 17.2876V42.8441Z" fill="#5D5FEF"/>
<path d="M39.9628 21.1914H10.0373C9.19666 21.1914 8.51532 22.0103 8.51532 23.0206C8.51532 24.0309 9.19666 24.8498 10.0373 24.8498H39.9629C40.8036 24.8498 41.4849 24.0309 41.4849 23.0206C41.4849 22.0103 40.8034 21.1914 39.9628 21.1914Z" fill="#5D5FEF"/>
<path d="M39.9628 28.4167H10.0373C9.19666 28.4167 8.51532 29.2356 8.51532 30.246C8.51532 31.2563 9.19666 32.0752 10.0373 32.0752H39.9629C40.8036 32.0752 41.4849 31.2563 41.4849 30.246C41.4849 29.2356 40.8034 28.4167 39.9628 28.4167Z" fill="#5D5FEF"/>
<path d="M39.9628 35.6422H10.0373C9.19666 35.6422 8.51532 36.461 8.51532 37.4714C8.51532 38.4817 9.19666 39.3006 10.0373 39.3006H39.9629C40.8036 39.3006 41.4849 38.4817 41.4849 37.4714C41.4849 36.461 40.8034 35.6422 39.9628 35.6422Z" fill="#5D5FEF"/>
</svg>
