<svg width="50" height="50" viewBox="0 0 50 50" fill="none" xmlns="http://www.w3.org/2000/svg">
<g clip-path="url(#clip0_7_220)">
<path d="M48.7934 2.11637L48.5443 1.4569L47.8848 1.20784C45.7625 0.406359 43.5318 0 41.2546 0C36.2501 0 31.545 1.94888 28.0062 5.48771L22.9889 10.505L11.7754 11.0489L2.39001 20.4341L10.4821 23.0118L7.48978 26.004L9.23777 27.752L5.36519 33.6878L16.3133 44.6361L22.2492 40.7635L23.9971 42.5115L26.9895 39.5192L29.5669 47.6113L38.9525 38.2259L39.4963 27.0124L44.5136 21.9952C49.711 16.7976 51.391 8.99472 48.7934 2.11637ZM8.22177 19.0163L13.1303 14.1078L19.705 13.7889L12.9664 20.5276L8.22177 19.0163ZM16.7293 40.6383L9.36303 33.272L11.4929 30.0073L19.9939 38.5084L16.7293 40.6383ZM35.8935 36.8711L30.985 41.7795L29.4737 37.0349L36.2123 30.2963L35.8935 36.8711ZM23.9971 38.0976L11.9035 26.004L30.2131 7.69449C33.1625 4.74522 37.0836 3.12103 41.2546 3.12103C42.9147 3.12103 44.5447 3.37977 46.11 3.89099C47.9255 9.45476 46.4702 15.6245 42.3067 19.7882L23.9971 38.0976Z" fill="#5D5FEF"/>
<path d="M37.9675 7.35211C36.717 7.35211 35.5414 7.8391 34.6572 8.72329C32.8319 10.5486 32.8319 13.5187 34.6572 15.344C35.5414 16.2282 36.7171 16.7152 37.9675 16.7152C39.2179 16.7152 40.3936 16.2282 41.2778 15.344C43.1032 13.5188 43.1032 10.5487 41.2778 8.72329C40.3937 7.8391 39.218 7.35211 37.9675 7.35211ZM39.071 13.1372C38.7763 13.4319 38.3844 13.5943 37.9676 13.5943C37.5509 13.5943 37.159 13.4319 36.8642 13.1373C36.2557 12.5288 36.2557 11.5388 36.8642 10.9303C37.159 10.6355 37.5509 10.4732 37.9676 10.4732C38.3844 10.4732 38.7763 10.6355 39.071 10.9303C39.6794 11.5387 39.6794 12.5288 39.071 13.1372Z" fill="#5D5FEF"/>
<path d="M0.00115967 39.0766L3.53823 35.5394L5.74511 37.7463L2.20804 41.2834L0.00115967 39.0766ZM10.9238 50L8.71696 47.7931L12.254 44.2561L14.4609 46.4629L10.9238 50ZM2.60389 45.0342L7.81831 39.8198L10.0252 42.0267L4.81078 47.2411L2.60389 45.0342Z" fill="#5D5FEF"/>
</g>
<defs>
<clipPath id="clip0_7_220">
<rect width="50" height="50" fill="white"/>
</clipPath>
</defs>
</svg>
