<svg width="100%" height="100%" viewBox="0 0 135 81" fill="none" xmlns="http://www.w3.org/2000/svg">
<g clip-path="url(#clip0_9_21)">
<path fill-rule="evenodd" clip-rule="evenodd" d="M67.6197 0C49.6561 0 38.426 8.93066 33.9296 26.792C40.6706 17.865 48.5301 14.5164 57.5083 16.7464C62.6408 18.0185 66.2818 21.7143 70.3615 25.805C76.9416 32.4728 84.6184 40.1825 101.31 40.1825C119.274 40.1825 130.504 31.2518 135 13.3905C128.266 22.3248 120.407 25.6734 111.421 23.4361C106.289 22.164 102.648 18.4682 98.5682 14.3775C91.9661 7.67678 84.3222 0 67.6197 0ZM33.9296 40.1825C15.9659 40.1825 4.73591 49.1131 0.239502 66.9745C6.98776 58.0475 14.8473 54.6989 23.8182 56.9288C28.9507 58.201 32.5917 61.8968 36.6713 65.9984C43.2514 72.6553 50.9282 80.3759 67.6197 80.3759C85.5834 80.3759 96.8135 71.4453 101.31 53.584C94.5762 62.511 86.7167 65.8522 77.7312 63.6077C72.5987 62.3355 68.9577 58.6397 64.878 54.549C58.2979 47.8812 50.6212 40.1606 33.9296 40.1606V40.1825Z" fill="#06B6D4"/>
</g>
<defs>
<clipPath id="clip0_9_21">
<rect width="100%" height="100%" fill="white" transform="translate(0.239502)"/>
</clipPath>
</defs>
</svg>
